<svg id="Layer_1" enable-background="new 0 0 64 64" height="512" viewBox="0 0 64 64" width="512" xmlns="http://www.w3.org/2000/svg"><path d="m54 35c0-1.7-1.8-3-4-3s-4 1.3-4 3v3l-4.9-2.1c1.2-1.1 2-2.5 2.5-4l2.7-1.4c1-.5 1.7-1.5 1.7-2.7v-1.8c0-1.7-1.3-3-3-3h-.4l-.6.6v-2.6h2v-3c0-6.2-4.1-11.7-10-13.4-.2-1.5-1.5-2.6-3-2.6h-2c-1.5 0-2.8 1.1-3 2.6-5.9 1.7-10 7.2-10 13.4v3h2v2.6l-.6-.6h-.4c-1.7 0-3 1.3-3 3v1.8c0 1.1.6 2.2 1.7 2.7l2.7 1.4c.5 1.5 1.3 2.9 2.5 4l-8.3 3.6c-4 1.8-6.6 5.7-6.6 10.1v12.4h50v-29.1l-4 5.6zm-6 11.8v-9.2c1.3.5 2.7.5 4 0v3.6zm2-12.8c1.2 0 2 .6 2 1s-.8 1-2 1-2-.6-2-1 .8-1 2-1zm-4 8.7-6.5 4.8c-.5.3-1.2.5-1.8.5h-3.4l.3-1.2c.1-.4.5-.8 1-.8h1.4c1.6 0 3.1-.8 4.1-2.1l3.2-4.5 1.8.8v2.5zm-13.3 3.6-.7 2.6-.7-2.6c-.3-1.4-1.5-2.3-2.9-2.3h-1.4c-1 0-1.9-.5-2.4-1.3l-3-4.2 3.1-1.4 2.9 1.6c2.7 1.5 5.9 1.5 8.6 0l2.9-1.6 3.1 1.4-3 4.2c-.6.8-1.5 1.3-2.4 1.3h-1.4c-1.2 0-2.4.9-2.7 2.3zm-3 1.7h-3.4c-.6 0-1.3-.2-1.8-.6l-8.7-6.3 3.9-1.7 3.2 4.5c.9 1.3 2.5 2.1 4.1 2.1h1.4c.5 0 .9.3 1 .8zm15.7-22.9c.4.1.6.5.6.9v1.8c0 .4-.2.7-.6.9l-1.4.7v-.1-2.8zm-25.2-6.1c.4-1.2 1.5-2 2.8-2h18c1.3 0 2.4.8 2.8 2zm7.8-12.3v6.3h2v-8c0-.6.4-1 1-1h2c.6 0 1 .4 1 1v8h2v-6.3c4.1 1.4 7.1 4.9 7.8 9.2-.8-.6-1.8-.9-2.8-.9h-18c-1 0-2 .3-2.8.9.7-4.3 3.7-7.8 7.8-9.2zm-9.4 22c-.3-.2-.6-.5-.6-.9v-1.8c0-.4.3-.8.6-.9l1.4 1.4v2.8.1zm3.4.6v-8.3h20v8.3c0 2.6-1.4 4.9-3.6 6.1l-3 1.6c-2.1 1.1-4.6 1.1-6.7 0l-3-1.6c-2.3-1.2-3.7-3.6-3.7-6.1zm-12 20.2c0-3 1.5-5.7 3.9-7.4l9.5 6.9c.9.6 1.9 1 2.9 1h4.7v10h-3v-8h-7.2l-.8-3.2-2 .4.7 2.8h-1.7v8h-7zm16 4.5v2h-7v-2zm-7 4h7v2h-7zm14 2v-10h4.7c1.1 0 2.1-.3 2.9-1l5.4-3.9v4.4l-7.5 10.5zm23-20.9v20.9h-15l13-18v-.1z"/><path d="m54 58v-13.3l-8.9 13.3zm-2-2h-3.1l3.1-4.7z"/></svg>